<?xml version="1.0" encoding="UTF-8" standalone="no"?>
<svg width="22px" height="21px" viewBox="0 0 22 21" version="1.1" xmlns="http://www.w3.org/2000/svg" xmlns:xlink="http://www.w3.org/1999/xlink">
    <!-- Generator: Sketch 48.2 (47327) - http://www.bohemiancoding.com/sketch -->
    <title>ico-login-m</title>
    <desc>Created with Sketch.</desc>
    <defs></defs>
    <g id="1.2-HP-SideMenu-mob" stroke="none" stroke-width="1" fill="none" fill-rule="evenodd" transform="translate(-149.000000, -632.000000)">
        <g id="Group" transform="translate(0.000000, 619.000000)" fill="#000000" fill-rule="nonzero">
            <g id="ico-login-m" transform="translate(149.000000, 13.000000)">
                <path d="M10.7134545,1.62909091 C5.90254545,1.62909091 1.93163636,5.6 1.93163636,10.4109091 C1.93163636,15.2218182 5.90254545,19.1905455 10.7134545,19.1905455 C15.5243636,19.1905455 19.4930909,15.2218182 19.4930909,10.4109091 C19.4930909,5.6 15.5243636,1.62909091 10.7134545,1.62909091 Z M10.7134545,20.72 C5.06254545,20.72 0.404363636,16.0618182 0.404363636,10.4109091 C0.404363636,4.76 5.06254545,0.0996363636 10.7134545,0.0996363636 C16.3643636,0.0996363636 21.0225455,4.76 21.0225455,10.4109091 C21.0225455,16.0618182 16.3643636,20.72 10.7134545,20.72 Z" id="Shape"></path>
                <path d="M10.7134545,4.98909091 C9.18618182,4.98909091 8.03854545,6.21090909 8.03854545,7.664 C8.03854545,9.11490909 9.26254545,10.3367273 10.7134545,10.3367273 C12.1643636,10.3367273 13.4625455,9.11490909 13.4625455,7.664 C13.4625455,6.21090909 12.2407273,4.98909091 10.7134545,4.98909091 Z M10.7134545,11.48 C8.57527273,11.48 6.89527273,9.72363636 6.89527273,7.66181818 C6.89527273,5.60218182 8.65163636,3.84363636 10.7134545,3.84363636 C12.7752727,3.84363636 14.608,5.60218182 14.608,7.66181818 C14.608,9.72363636 12.8516364,11.48 10.7134545,11.48 Z" id="Shape"></path>
                <path d="M4.06981818,16.9018182 L2.92436364,16.5963636 C3.84290909,13.0836364 7.05018182,10.5614545 10.7134545,10.5614545 C14.3025455,10.5614545 17.4334545,12.9287273 18.4261818,16.2887273 L17.3570909,16.5963636 C16.5170909,13.6945455 13.768,11.6327273 10.7134545,11.6327273 C7.65890909,11.7090909 4.83345455,13.9236364 4.06981818,16.9018182 Z" id="Shape"></path>
            </g>
        </g>
    </g>
</svg>